<svg xmlns="http://www.w3.org/2000/svg" viewBox="0 0 4680 3120" id="a-college-professor-lectures-on-economics"><defs><clipPath id="a"><rect width="800.87" height="800.14" x="2678.88" y="1097.35" fill="none" rx="25.49"></rect></clipPath></defs><g data-name="2"><rect width="4680" height="3120" fill="#fff" opacity="0"></rect><rect width="2016.45" height="1457.08" x="1525.58" y="360" fill="#e2902a" rx="105.5"></rect><rect width="2016.45" height="1457.08" x="1570.31" y="360" fill="#fab243" rx="105.5"></rect><path fill="#e2902a" d="M3536.56,462.86V1714.21c0,30.33-26.1,55.14-58,55.14h-1800c-31.9,0-58-24.81-58-55.14V462.86c0-30.32,26.1-55.13,58-55.13h1800C3510.46,407.73,3536.56,432.54,3536.56,462.86Z"></path><path fill="#fff" d="M3491.83,462.86V1714.21c0,30.33-26.1,55.14-58,55.14H1678.52c-22,0-41.22-11.78-51-29l0,0a52.49,52.49,0,0,1-6.94-26.07V462.86c0-30.32,26.1-55.13,58-55.13H3433.83a59.28,59.28,0,0,1,43.81,19.09A53.33,53.33,0,0,1,3491.83,462.86Z"></path>
<path fill="#d0d0e2" d="M3477.64,426.82,1627.48,1740.31l0,0a52.49,52.49,0,0,1-6.94-26.07V462.86c0-30.32,26.1-55.13,58-55.13H3433.83A59.28,59.28,0,0,1,3477.64,426.82Z" opacity=".5"></path><rect width="677.87" height="609.14" x="2648.62" y="1097.35" fill="#157fbb" rx="25.49"></rect><g opacity=".5"><rect width="1041.93" height="30.77" x="1772.58" y="504.38" fill="#9a9ab5" rx="15.39"></rect><rect width="524.1" height="160.37" x="1772.58" y="789.88" fill="#9a9ab5" rx="23.24"></rect><rect width="890.27" height="30.77" x="1772.58" y="638.7" fill="#9a9ab5" rx="15.39"></rect><rect width="641.43" height="30.77" x="1863.78" y="994.67" fill="#9a9ab5" rx="15.39"></rect><rect width="69.65" height="9.69" x="1907.73" y="722.98" fill="#9a9ab5" rx="4.84" transform="rotate(-54.66 1942.48 727.83)"></rect><rect width="142" height="30.77" x="1772.58" y="710.4" fill="#9a9ab5" rx="15.39"></rect><rect width="223.1" height="30.77" x="1980.45" y="710.4" fill="#9a9ab5" rx="15.39"></rect><rect width="684.29" height="30.77" x="1772.58" y="567.12" fill="#9a9ab5" rx="15.39"></rect><circle cx="1802.37" cy="1010.06" r="25.77" fill="#9a9ab5"></circle><rect width="381.63" height="30.77" x="1863.78" y="1100.17" fill="#9a9ab5" rx="15.39"></rect><circle cx="1802.37" cy="1115.56" r="25.77" fill="#9a9ab5"></circle><rect width="140.34" height="30.77" x="1863.78" y="1205.68" fill="#9a9ab5" rx="15.39"></rect><circle cx="1802.37" cy="1221.06" r="25.77" fill="#9a9ab5"></circle></g><rect width="1041.93" height="30.77" x="1755.6" y="493.37" fill="#f8991c" rx="15.39"></rect><rect width="524.1" height="160.37" x="1755.6" y="778.87" fill="#99dde3" rx="23.24"></rect><rect width="890.27" height="30.77" x="1755.6" y="627.7" fill="#5555cd" rx="15.39"></rect><rect width="641.43" height="30.77" x="1846.8" y="983.66" fill="#157fbb" rx="15.39"></rect>
<path fill="#fff" d="M1943.34,698.7l-34.69,48.92c2-1.37-1-.85-3.21-2.39h0a4.86,4.86,0,0,1-1.15-6.76L1939,689.56a4.86,4.86,0,0,1,6.76-1.15h0C1947.9,690,1948.42,693,1943.34,698.7Z"></path><rect width="142" height="30.77" x="1752.07" y="702.93" fill="#fff" rx="15.39"></rect><path fill="#fff" d="M2167.65,733.7H1975.32c-4.93-3.54-11.85-10.46-11.85-18.92h0a15.43,15.43,0,0,1,15.39-15.39h192.33a15.43,15.43,0,0,1,15.38,15.39h0C2186.57,723.24,2179.65,730.16,2167.65,733.7Z"></path>
<rect width="684.29" height="30.77" x="1755.6" y="556.11" fill="#ff4a66" rx="15.39"></rect><circle cx="1785.4" cy="999.05" r="25.77" fill="#23b9ba"></circle><rect width="381.63" height="30.77" x="1843.26" y="1092.7" fill="#fff" rx="15.39"></rect><circle cx="1781.86" cy="1108.09" r="25.77" fill="#fff"></circle><rect width="140.34" height="30.77" x="1846.8" y="1194.67" fill="#fff" rx="15.39"></rect><circle cx="1785.4" cy="1210.06" r="25.77" fill="#fff"></circle><rect width="677.87" height="609.14" x="2678.88" y="1097.35" fill="#fff8e3" rx="25.49"></rect><g clip-path="url(#a)">
<path fill="#3c3ba3" d="M2771.43 1039.59v708.32c0 9.56-.19 19.15 0 28.71 0 .42 0 .84 0 1.26a.72.72 0 001.43 0V1069.56c0-9.56.19-19.15 0-28.71 0-.42 0-.84 0-1.26a.72.72 0 00-1.43 0zM2857.8 1039.59v708.32c0 9.56-.2 19.15 0 28.71 0 .42 0 .84 0 1.26a.72.72 0 001.43 0V1069.56c0-9.56.19-19.15 0-28.71 0-.42 0-.84 0-1.26a.72.72 0 00-1.43 0zM2944.16 1039.59v708.32c0 9.56-.19 19.15 0 28.71 0 .42 0 .84 0 1.26a.72.72 0 001.44 0V1069.56c0-9.56.19-19.15 0-28.71 0-.42 0-.84 0-1.26a.72.72 0 00-1.44 0zM3030.53 1039.59v708.32c0 9.56-.19 19.15 0 28.71 0 .42 0 .84 0 1.26a.72.72 0 001.43 0V1069.56c0-9.56.2-19.15 0-28.71 0-.42 0-.84 0-1.26a.72.72 0 00-1.43 0zM3116.9 1039.59v708.32c0 9.56-.2 19.15 0 28.71 0 .42 0 .84 0 1.26a.72.72 0 001.43 0V1069.56c0-9.56.19-19.15 0-28.71 0-.42 0-.84 0-1.26a.72.72 0 00-1.43 0zM3203.26 1039.59v708.32c0 9.56-.19 19.15 0 28.71 0 .42 0 .84 0 1.26a.72.72 0 001.44 0V1069.56c0-9.56.19-19.15 0-28.71 0-.42 0-.84 0-1.26a.72.72 0 00-1.44 0zM3289.63 1039.59v708.32c0 9.56-.19 19.15 0 28.71 0 .42 0 .84 0 1.26a.72.72 0 001.43 0V1069.56c0-9.56.2-19.15 0-28.71 0-.42 0-.84 0-1.26a.72.72 0 00-1.43 0z"></path>
<path fill="#3c3ba3" d="M3400.14 1148.92H2691.83c-9.57 0-19.16-.2-28.72 0h-1.25a.72.72 0 000 1.43h708.31c9.57 0 19.15.19 28.72 0h1.25a.72.72 0 000-1.43zM3400.14 1235.28H2691.83c-9.57 0-19.16-.19-28.72 0h-1.25a.72.72 0 000 1.44h708.31c9.57 0 19.15.19 28.72 0h1.25a.72.72 0 000-1.44zM3400.14 1321.65H2691.83c-9.57 0-19.16-.19-28.72 0h-1.25a.72.72 0 000 1.43h708.31c9.57 0 19.15.2 28.72 0h1.25a.72.72 0 000-1.43zM3400.14 1408H2691.83c-9.57 0-19.16-.19-28.72 0h-1.25a.72.72 0 000 1.43h708.31c9.57 0 19.15.19 28.72 0h1.25a.72.72 0 000-1.43zM3400.14 1494.39H2691.83c-9.57 0-19.16-.2-28.72 0h-1.25a.72.72 0 000 1.43h708.31c9.57 0 19.15.19 28.72 0h1.25a.72.72 0 000-1.43zM3400.14 1580.75H2691.83c-9.57 0-19.16-.19-28.72 0h-1.25a.72.72 0 000 1.43h708.31c9.57 0 19.15.2 28.72 0h1.25a.72.72 0 000-1.43zM3400.14 1667.12H2691.83c-9.57 0-19.16-.19-28.72 0-.42 0-.84 0-1.25 0a.72.72 0 000 1.43h708.31c9.57 0 19.15.19 28.72 0h1.25a.72.72 0 000-1.43z"></path></g>
<path fill="#9a9ab5" d="M2302.73,1194.41c-130.28,0-235.92,105.62-235.92,235.92s105.64,235.92,235.92,235.92c124.07,0,225.76-95.75,235.2-217.39q.72-9.18.72-18.53C2538.65,1300,2433,1194.41,2302.73,1194.41Zm156.15,254.45a157.28,157.28,0,1,1,1.09-18.53A159.66,159.66,0,0,1,2458.88,1448.86Z" opacity=".5"></path>
<path fill="#fff8e3" d="M2287.35,1186.61c-130.29,0-235.92,105.62-235.92,235.92s105.63,235.92,235.92,235.92c124.06,0,225.75-95.75,235.2-217.4q.7-9.16.72-18.52C2523.27,1292.23,2417.64,1186.61,2287.35,1186.61Zm0,393.15a157.19,157.19,0,1,1,156.14-138.71A157.24,157.24,0,0,1,2287.35,1579.76Z"></path>
<path fill="#ff4a66" d="M2523.27,1422.53q0,9.35-.72,18.52h-79.06a157.28,157.28,0,0,0-156.14-175.76v-78.68C2417.64,1186.61,2523.27,1292.23,2523.27,1422.53Z"></path><rect width="87.68" height="519.82" x="2990.71" y="519.77" fill="#ff4a66" rx="13.48"></rect><rect width="87.68" height="337.86" x="3112.66" y="701.74" fill="#99dde3" rx="10.87"></rect><rect width="87.68" height="402.64" x="2868.15" y="636.95" fill="#fab243" rx="11.86"></rect><rect width="87.68" height="209.53" x="3230.6" y="830.06" fill="#157fbb" rx="8.56"></rect>
<path fill="#5555cd" d="M2835.17,1008.66l20-27,47.72-64.39,57.66-77.81,49.85-67.27c8.08-10.9,16.67-21.59,24.31-32.81.1-.15.22-.29.33-.43h-15.16l13.26,19.85L3065,806.5l38.53,57.7,33.31,49.91c5.4,8.09,10.69,16.27,16.21,24.28l.23.34a9,9,0,0,0,7.58,4.35c3.37,0,5.66-1.79,7.58-4.35l18-24.05,43.25-57.75,52.14-69.62,45.07-60.19c7.3-9.74,15.12-19.26,22-29.33.09-.14.2-.27.3-.4,2.76-3.69.72-10-3.15-12-4.6-2.43-9.05-.79-12,3.15l-18,24.06-43.25,57.75L3220.6,840l-45.07,60.18c-7.3,9.75-15.05,19.3-22,29.33l-.31.41h15.16L3155.16,910l-31.84-47.69-38.52-57.71-33.32-49.91c-5.4-8.09-10.69-16.27-16.2-24.28l-.23-.34c-3.91-5.86-11.17-5.39-15.16,0l-20,27-47.71,64.38-57.66,77.81-49.85,67.27-16.52,22.29c-2.59,3.49-5.36,6.92-7.8,10.52-.1.15-.21.3-.32.44-2.74,3.7-.73,10,3.15,12,4.58,2.42,9.08.8,12-3.15Z"></path>
<path fill="#5555cd" d="M3290.42,695.83l65.68-37.4a6.53,6.53,0,0,1,9.63,7l-15.32,75.27a6.54,6.54,0,0,1-11.95,2.15l-16.65-26.71a6.55,6.55,0,0,0-4.21-2.94l-25.29-5.28A6.53,6.53,0,0,1,3290.42,695.83Z"></path><circle cx="3027.47" cy="737.34" r="19.64" fill="#fff"></circle><circle cx="3160.84" cy="933.16" r="19.64" fill="#fff"></circle><ellipse cx="2340" cy="2551.41" fill="#e4e4f4" rx="1479.23" ry="208.59"></ellipse>
<path fill="#aeaece" d="M3276.57,2475.06a769,769,0,0,0-93.56,5.34c-92.92-26.45-392-45.81-746.68-45.81-420.43,0-762.81,27.21-776.14,61.19-63.37-7.18-140.81-11.4-224.42-11.4-214.4,0-388.2,27.74-388.2,62s173.8,62,388.2,62,388.2-27.74,388.2-62c0-3.46-1.81-6.86-5.23-10.17,141.88,15.14,365.73,24.9,617.59,24.9,301,0,562-14,690.92-34.34,30.43,9.93,85.91,16.58,149.32,16.58,96.14,0,174.08-15.28,174.08-34.13S3372.71,2475.06,3276.57,2475.06Z"></path>
<rect width="1163.31" height="781.96" x="2039.78" y="1705.75" fill="#157fbb"></rect><rect width="1163.32" height="781.97" x="1761.05" y="1705.75" fill="#99dde3"></rect><path fill="#228e96" d="M2871.23,1812v569.46a53.13,53.13,0,0,0-53.12,53.13H1867.3a53.13,53.13,0,0,0-53.13-53.13V1812a53.13,53.13,0,0,0,53.13-53.12h950.81A53.13,53.13,0,0,0,2871.23,1812Z"></path><path fill="#59c7d2" d="M2871.23,1812v569.46a53.13,53.13,0,0,0-53.12,53.13H1887.3a53.13,53.13,0,0,0-53.13-53.13V1812a53.13,53.13,0,0,0,53.13-53.12h930.81A53.13,53.13,0,0,0,2871.23,1812Z"></path><rect width="1305.88" height="65.62" x="1971.09" y="1640.13" fill="#25257f" rx="13.03"></rect><rect width="1305.88" height="65.62" x="1688.96" y="1640.13" fill="#3c3ba3" rx="13.03"></rect><rect width="1163.32" height="32.81" x="1761.05" y="1705.75" fill="#59c7d2"></rect><path fill="#fff" d="M2329.25,1499.87H2134.7c-10.34,0-18.71-11.51-18.71-25.66a30.48,30.48,0,0,1,5.85-18.52c3.47-4.57,8-7.09,12.86-7.09h194.51a24.63,24.63,0,0,0-4.86,4.82,34.39,34.39,0,0,0-6.6,20.79C2317.75,1485.23,2322.38,1494.85,2329.25,1499.87Z"></path><path fill="#dd8317" d="M2339.62,1499.87l.38,7.46a6.83,6.83,0,0,1-1.28.08h-204a22,22,0,0,1-12.18-3.77,30,30,0,0,1-4.49-3.77c-5.85-6.12-9.58-15.36-9.58-25.66a37.87,37.87,0,0,1,7.39-23.09,24.59,24.59,0,0,1,2.19-2.52,23.27,23.27,0,0,1,4.53-3.78,21.94,21.94,0,0,1,12.14-3.77h204a6.83,6.83,0,0,1,1.28.08l-.38,7.47H2134.7c-4.83,0-9.39,2.52-12.86,7.09a30.48,30.48,0,0,0-5.85,18.52c0,14.15,8.37,25.66,18.71,25.66Z"></path><path fill="#fab243" d="M2122.52,1503.64a22,22,0,0,0,12.18,3.77h-65.53c-14.48,0-26.3-14.9-26.3-33.2s11.82-33.16,26.3-33.16h65.53a21.94,21.94,0,0,0-12.14,3.77,23.27,23.27,0,0,0-4.53,3.78,24.59,24.59,0,0,0-2.19,2.52,37.87,37.87,0,0,0-7.39,23.09c0,10.3,3.73,19.54,9.58,25.66A30,30,0,0,0,2122.52,1503.64Z"></path>
<path fill="#fff" d="M2345.27,1566.23H2151.36c-10.34,0-18.71-11.51-18.71-25.62a30.71,30.71,0,0,1,5.85-18.56c3.47-4.57,8-7.09,12.86-7.09h193.87a23.69,23.69,0,0,0-4.87,4.83,34.46,34.46,0,0,0-6.6,20.82C2333.76,1551.63,2338.4,1561.21,2345.27,1566.23Z"></path><path fill="#59c7d2" d="M2355.9,1566.23l-.07,7.54H2151.36a22.1,22.1,0,0,1-12.19-3.77,30,30,0,0,1-4.48-3.77c-5.85-6.08-9.59-15.32-9.59-25.62a38.4,38.4,0,0,1,7.36-23.13,28.06,28.06,0,0,1,2.19-2.52,23.8,23.8,0,0,1,4.56-3.78,22,22,0,0,1,12.15-3.77h204.47l.07,7.55H2151.36c-4.83,0-9.39,2.52-12.86,7.09a30.71,30.71,0,0,0-5.85,18.56c0,14.11,8.37,25.62,18.71,25.62Z"></path><path fill="#99dde3" d="M2139.17,1570a22.1,22.1,0,0,0,12.19,3.77H2029.23c-14.48,0-26.29-14.86-26.29-33.16s11.81-33.2,26.29-33.2h122.13a22,22,0,0,0-12.15,3.77,23.8,23.8,0,0,0-4.56,3.78,28.06,28.06,0,0,0-2.19,2.52,38.4,38.4,0,0,0-7.36,23.13c0,10.3,3.74,19.54,9.59,25.62A30,30,0,0,0,2139.17,1570Z"></path><path fill="#fff" d="M2105.38,1499.87h-11.66a47.82,47.82,0,0,1,0-51.28h11.66a47.6,47.6,0,0,0,0,51.28Z"></path>
<path fill="#fff" d="M2083.84 1499.87h-19.09s0-.08-.08-.12c-6.44-4.45-10.68-12.82-10.68-25.52 0-12.53 5.07-20.55 10.64-25.52 0 0 0-.08.09-.12h19.08a47.63 47.63 0 000 51.28zM2062.78 1566.26h-29.5c-10.19 0-18.75-11.74-18.75-25.62s8.56-25.65 18.75-25.65h29.46a47.83 47.83 0 000 51.27zM2116 1566.26h-26.41a47.8 47.8 0 010-51.27H2116a47.8 47.8 0 000 51.27z"></path><path fill="#dcdfe5" d="M2329.31 1448.61a24.41 24.41 0 00-4.86 4.83 33.21 33.21 0 00-6.39 16.83l-109.77 29.61H2134.8c-10.33 0-18.71-11.51-18.71-25.66a30.59 30.59 0 015.85-18.52c3.47-4.56 8-7.09 12.86-7.09zM2346.79 1515a23.4 23.4 0 00-4.86 4.83 33.58 33.58 0 00-6.42 17.13L2226 1566.23h-73.11c-10.34 0-18.72-11.51-18.72-25.62a30.75 30.75 0 015.85-18.56c3.47-4.57 8-7.09 12.87-7.09z"></path><path fill="#fff" d="M2345.27,1632.59H2151.36c-10.34,0-18.71-11.51-18.71-25.62a30.71,30.71,0,0,1,5.85-18.56c3.47-4.56,8-7.09,12.86-7.09h193.87a23.69,23.69,0,0,0-4.87,4.83,34.48,34.48,0,0,0-6.6,20.82C2333.76,1618,2338.4,1627.57,2345.27,1632.59Z"></path><path fill="#157fbb" d="M2355.9,1632.59l-.07,7.54H2151.36a22,22,0,0,1-12.19-3.77,30,30,0,0,1-4.48-3.77c-5.85-6.08-9.59-15.32-9.59-25.62a38.35,38.35,0,0,1,7.36-23.12,26.87,26.87,0,0,1,2.19-2.53,23.38,23.38,0,0,1,4.56-3.77,21.9,21.9,0,0,1,12.15-3.78h204.47l.07,7.55H2151.36c-4.83,0-9.39,2.53-12.86,7.09a30.71,30.71,0,0,0-5.85,18.56c0,14.11,8.37,25.62,18.71,25.62Z"></path><path fill="#2794d7" d="M2139.17,1636.36a22,22,0,0,0,12.19,3.77H2029.23c-14.48,0-26.29-14.86-26.29-33.16s11.81-33.2,26.29-33.2h122.13a21.9,21.9,0,0,0-12.15,3.78,23.38,23.38,0,0,0-4.56,3.77,26.87,26.87,0,0,0-2.19,2.53,38.35,38.35,0,0,0-7.36,23.12c0,10.3,3.74,19.54,9.59,25.62A30,30,0,0,0,2139.17,1636.36Z"></path><path fill="#fff" d="M2062.78 1632.62h-29.5c-10.19 0-18.75-11.73-18.75-25.62s8.56-25.65 18.75-25.65h29.46a47.83 47.83 0 000 51.27zM2116 1632.62h-26.41a47.8 47.8 0 010-51.27H2116a47.8 47.8 0 000 51.27z"></path><path fill="#dcdfe5" d="M2345.34,1581.33a23.65,23.65,0,0,0-4.86,4.83,33.7,33.7,0,0,0-6.42,17.13l-109.47,29.31h-73.11c-10.34,0-18.72-11.5-18.72-25.61a30.75,30.75,0,0,1,5.85-18.56c3.47-4.57,8-7.1,12.87-7.1Z"></path><path fill="#aeaece" d="M2156.77 1461.27c22.7-.64 45.4-.47 68.11-.74 22.7.27 45.41.1 68.11.74-22.7.63-45.41.47-68.11.73C2202.17 1461.74 2179.47 1461.9 2156.77 1461.27zM2134.59 1476.48c16-.51 32.09-.38 48.14-.6 16.05.21 32.09.09 48.14.6-16 .52-32.09.4-48.14.61C2166.68 1476.87 2150.64 1477 2134.59 1476.48zM2177 1487.41c22.66-.51 45.32-.38 68-.6 22.65.21 45.31.09 68 .6-22.66.52-45.32.4-68 .61C2222.36 1487.8 2199.7 1487.93 2177 1487.41zM2170.22 1481c23.8-.52 47.59-.38 71.39-.61 23.79.22 47.58.09 71.38.61-23.8.51-47.59.39-71.38.6C2217.81 1481.33 2194 1481.46 2170.22 1481zM2170.22 1468.65c23.8-.78 47.59-.58 71.39-.91 23.79.32 47.58.13 71.38.91-23.8.78-47.59.59-71.38.9C2217.81 1469.23 2194 1469.43 2170.22 1468.65zM2270 1455.91c7.17-.52 14.34-.39 21.51-.61 7.17.22 14.34.09 21.51.61-7.17.51-14.34.39-21.51.6C2284.31 1456.29 2277.14 1456.42 2270 1455.91zM2154.43 1491.22c25.16-.52 50.32-.39 75.47-.61 25.16.22 50.32.09 75.47.61-25.15.51-50.31.39-75.47.6C2204.75 1491.6 2179.59 1491.73 2154.43 1491.22zM2150.73 1472.14c10.08-.75 20.17-.8 30.25-.91 10.08.11 20.16.16 30.25.91-10.09.75-20.17.8-30.25.91C2170.9 1472.94 2160.81 1472.89 2150.73 1472.14zM2174.58 1525.71c22.71-.63 45.41-.47 68.12-.73 22.7.26 45.41.1 68.11.73-22.7.64-45.41.48-68.11.74C2220 1526.19 2197.29 1526.35 2174.58 1525.71zM2152.41 1540.93c16-.51 32.09-.38 48.14-.6 16 .21 32.09.09 48.14.6-16.05.52-32.1.39-48.14.61C2184.5 1541.31 2168.45 1541.45 2152.41 1540.93zM2194.86 1551.86c22.66-.51 45.31-.38 68-.6 22.66.21 45.32.09 68 .6-22.65.52-45.31.39-68 .61C2240.17 1552.24 2217.52 1552.38 2194.86 1551.86zM2188 1545.39c23.79-.51 47.59-.38 71.38-.6 23.79.21 47.59.09 71.38.6-23.79.52-47.59.4-71.38.61C2235.63 1545.78 2211.83 1545.91 2188 1545.39zM2188 1533.09c23.79-.78 47.59-.58 71.38-.9 23.79.32 47.59.12 71.38.9-23.79.79-47.59.59-71.38.91C2235.63 1533.68 2211.83 1533.88 2188 1533.09zM2287.79 1520.35c7.17-.51 14.33-.38 21.5-.6 7.18.21 14.34.09 21.51.6-7.17.52-14.33.39-21.51.61C2302.12 1520.74 2295 1520.87 2287.79 1520.35zM2172.25 1555.66c25.16-.51 50.31-.38 75.47-.6 25.16.21 50.31.09 75.47.6-25.16.52-50.31.39-75.47.61C2222.56 1556.05 2197.41 1556.18 2172.25 1555.66zM2168.55 1536.59c10.08-.76 20.16-.81 30.25-.92 10.08.11 20.16.16 30.24.92-10.08.75-20.16.8-30.24.91C2188.71 1537.39 2178.63 1537.34 2168.55 1536.59zM2171.94 1594.69c22.7-.63 45.4-.47 68.11-.74 22.7.27 45.41.11 68.11.74-22.7.63-45.41.47-68.11.74C2217.34 1595.16 2194.64 1595.32 2171.94 1594.69zM2149.76 1609.91c16-.52 32.09-.39 48.14-.61 16 .22 32.09.09 48.14.61-16.05.51-32.1.39-48.14.6C2181.85 1610.29 2165.81 1610.42 2149.76 1609.91zM2192.21 1620.84c22.66-.52 45.32-.39 68-.61 22.66.22 45.32.09 68 .61-22.66.51-45.32.39-68 .6C2237.53 1621.22 2214.87 1621.35 2192.21 1620.84zM2185.39 1614.37c23.8-.51 47.59-.38 71.38-.6 23.8.21 47.59.09 71.39.6-23.8.52-47.59.39-71.39.61C2233 1614.75 2209.19 1614.89 2185.39 1614.37zM2185.39 1602.07c23.8-.78 47.59-.58 71.38-.91 23.8.32 47.59.13 71.39.91-23.8.78-47.59.59-71.39.91C2233 1602.65 2209.19 1602.85 2185.39 1602.07zM2285.14 1589.33c7.17-.52 14.34-.38 21.51-.61 7.17.22 14.33.09 21.51.61-7.18.51-14.34.39-21.51.6C2299.48 1589.71 2292.31 1589.84 2285.14 1589.33zM2169.6 1624.64c25.16-.52 50.31-.38 75.47-.61 25.16.22 50.31.09 75.47.61-25.16.51-50.31.39-75.47.6C2219.91 1625 2194.76 1625.15 2169.6 1624.64zM2165.9 1605.56c10.08-.75 20.17-.8 30.25-.91 10.08.11 20.16.16 30.25.91-10.09.75-20.17.8-30.25.92C2186.07 1606.36 2176 1606.31 2165.9 1605.56z"></path><path fill="#b3ce25" d="M2006.46,1562.73a35.51,35.51,0,0,0-50.72-12.93,35.51,35.51,0,0,0,50.72,12.93Z"></path><path fill="#ff4a66" d="M1963.2,1613.13c6.91,18.21,24.79,28.76,42.06,25.9,17.24,2.89,35.2-7.69,42.1-25.9,7.79-20.53-1.32-43.06-20.36-50.28a254.1,254.1,0,0,0-43.44,0C1964.49,1570.07,1955.41,1592.6,1963.2,1613.13Z"></path><path fill="#d7274d" d="M1963.2,1613.13c6.91,18.21,24.79,28.76,42.06,25.9,13.09,2.21,26.61-3.4,35.38-14.2a35.91,35.91,0,0,1-11,5.61c-9.4,2.22-22.81-4-30.86-7.58-10.26-4.93-22.78-1.79-27.72-14.3-4-9.88-3.26-22.37,3.13-31.43,4-5.7,6.9-6.35,11.85-11.18,1.48-1.44,7.48-3.71,6.52-5.21a33.49,33.49,0,0,0-9,2.11C1964.49,1570.07,1955.41,1592.6,1963.2,1613.13Z"></path><path fill="#442a19" d="M1997.17,1540.15c4.26,5.36,10.48,14.17,6.15,21-2.34,3.69,1.34,5.92,3.66,2.24,6.19-9.81,1.29-20.36-5.23-28.58-2-2.55-6.29,3.12-4.58,5.29Z"></path><path fill="#f9837d" d="M2026,1589.31c3.85,8,10.31,12.9,14.43,10.92s4.33-10.07.48-18.09-10.3-12.9-14.42-10.92S2022.12,1581.3,2026,1589.31Z"></path><rect width="351.36" height="31.77" x="2647.64" y="1609.43" fill="#fab243" rx="15.89"></rect><rect width="440.15" height="31.77" x="2352.51" y="1609.43" fill="#ff4a66" rx="15.89" transform="rotate(180 2572.58 1625.315)"></rect><path fill="#e2902a" d="M2393.19,1609.43h374.58a14,14,0,0,0,13.76-16.61l-50.1-264.11a14,14,0,0,0-13.76-11.39H2343.09a14,14,0,0,0-13.75,16.61l50.1,264.11A14,14,0,0,0,2393.19,1609.43Z"></path><path fill="#fab243" d="M2377.09,1609.43h374.58a14,14,0,0,0,13.75-16.61l-50.1-264.11a14,14,0,0,0-13.75-11.39H2327a14,14,0,0,0-13.75,16.61l50.1,264.11A14,14,0,0,0,2377.09,1609.43Z"></path><path fill="#59c7d2" d="M2946,1424.36c21.12-.62,40.41,12.76,53.88,29s22.66,35.63,34.63,53c4.14,6,8.79,12,15.15,15.59,8.2,4.66,18.08,4.83,27.29,6.84a68.67,68.67,0,0,1,48.8,42.37c14.35,38.6-6.8,88,19.41,119.82,7.33,8.89,17.5,14.91,26.14,22.53,21,18.53,32.38,46.11,36.47,73.83s1.57,55.95-1.16,83.84q-4,41.33-8.64,82.58c-1.87,16.75-8.62,38.13-25.47,38.31-7,.07-13.35-4-19.11-8a618.43,618.43,0,0,1-115.51-104.53c-27.9-32.54-53.57-76.9-36.3-116.13,4.05-9.2,10.47-18.45,8.6-28.32-1.12-5.89-5.07-10.81-9.15-15.2-17.78-19.13-40.52-33.47-56.42-54.18s-23.19-52-6.69-72.23c7.42-9.12,19.78-17.83,16.78-29.2-1.26-4.78-5.12-8.35-8.62-11.83C2919.24,1525.89,2871.35,1426.54,2946,1424.36Z"></path><path fill="#228e96" d="M2948.25,1477.76c17.28,21.14,33.43,43.19,48.78,65.76s29.63,45.88,43.18,69.59,26.17,47.94,38,72.54,22.9,49.58,33.19,74.87,19.61,51,28.27,76.86l6.34,19.47c2.05,6.51,4,13.05,6,19.57s3.82,13.1,5.74,19.65,3.58,13.17,5.38,19.75q10.44,39.6,18.4,79.78c1.3,6.7,2.48,13.43,3.73,20.13s2.26,13.46,3.39,20.19l3.05,20.24,2.62,20.29a2.63,2.63,0,0,1-5.21.75v-.06l-3.12-20.12-3.41-20.08c-1.25-6.67-2.44-13.35-3.74-20s-2.66-13.31-4.08-20q-8.33-39.86-19.17-79.12c-1.85-6.53-3.65-13.07-5.55-19.58s-3.8-13-5.77-19.52-4-13-6.07-19.43L3131.9,1840q-13-38.58-28.29-76.32T3071,1689.13q-17.49-36.75-37.29-72.33t-42.06-69.67q-22.18-34.12-47.14-66.37a2.41,2.41,0,0,1,3.78-3Z"></path><path fill="#228e96" d="M3053.59 1654.75a4.19 4.19 0 01-1-.12l-93.09-22.28a4.23 4.23 0 012-8.23l93.09 22.28a4.23 4.23 0 01-1 8.35zM3085.39 1706.27a4.35 4.35 0 01-1.41-.24 4.24 4.24 0 01-2.58-5.4 591.06 591.06 0 0024-90.08 4.23 4.23 0 018.32 1.53 599.52 599.52 0 01-24.38 91.37A4.24 4.24 0 013085.39 1706.27zM3137.26 1838.59a4.24 4.24 0 01-3.5-6.61 412.27 412.27 0 0034.76-62.39 4.23 4.23 0 017.72 3.46 420.84 420.84 0 01-35.47 63.68A4.23 4.23 0 013137.26 1838.59z"></path><path fill="#99dde3" d="M3243.2,1272.6c20.27,12.81,30.49,36.62,37.56,59.53s12.59,47.18,27.45,66c14.53,18.39,36.41,29.47,52.64,46.37,34.72,36.15,37.75,94.41,19.1,140.93-11.31,28.2-30,57.06-22.32,86.47,3,11.4,9.69,21.39,14.71,32,14.16,30.09,14.34,65.38,6,97.57s-24.6,61.75-42.46,89.8c-8.63,13.57-18.75,27.72-34,32.82-25,8.37-50.3-11.07-68.37-30.34-27-28.8-51.23-61-65.62-97.75s-18.3-78.64-5-115.83c4.16-11.62,9.94-22.77,12.15-34.91,7.74-42.54-29.5-81.37-30.17-124.61-.75-48.6,44.58-90.53,38.72-138.78-2.15-17.71-11.14-33.87-15-51.29C3159.7,1290.06,3204.33,1248,3243.2,1272.6Z"></path><path fill="#228e96" d="M3227.79,1327.87c16.9,60.85,27.65,123.15,36.2,185.59,4.29,31.23,7.73,62.56,10.72,93.94s5.44,62.79,7.42,94.24,3.25,62.94,4.15,94.44c.26,7.88.41,15.75.58,23.63l.23,11.82.15,11.81.14,11.82,0,11.82q0,11.82-.09,23.64c-.28,31.51-1.13,63-2.75,94.52l-.66,11.8-.8,11.8-.82,11.79-1,11.79c-.59,7.86-1.42,15.71-2.17,23.56-.37,3.92-.85,7.84-1.31,11.76l-1.37,11.75a2.64,2.64,0,0,1-5.24-.57v0c3.14-31.23,5.22-62.58,6.43-94s1.86-62.8,1.84-94.23V1878.8l-.11-11.78-.07-11.79-.18-11.78-.17-11.78-.27-11.78c-.19-7.86-.36-15.71-.64-23.56q-1.44-47.11-4.34-94.18t-7-94q-4.26-46.94-10.13-93.71c-3.92-31.17-8.49-62.26-13.93-93.19s-11.75-61.7-19.49-92.11v0a2.42,2.42,0,0,1,4.67-1.24Z"></path><path fill="#228e96" d="M3264.6 1566.18a4.25 4.25 0 01-2.5-.82l-34.24-25c-16.08-11.74-32.68-23.87-49.52-34.95a4.23 4.23 0 014.66-7.07c17 11.2 33.69 23.38 49.82 35.17l34.28 25a4.23 4.23 0 01-2.5 7.65zM3276.74 1652.58a4.22 4.22 0 01-3.18-7c26.74-30.37 53-61.9 78-93.72a4.23 4.23 0 116.65 5.23c-25.09 31.94-51.43 63.59-78.27 94.08A4.2 4.2 0 013276.74 1652.58zM3280.75 1803.05a4.18 4.18 0 01-2.33-.7 488.08 488.08 0 01-79.37-65.44 4.24 4.24 0 016-5.93 479.36 479.36 0 0078 64.31 4.23 4.23 0 01-2.34 7.76zM3288 1861a6.52 6.52 0 01-2.33-.42 5.53 5.53 0 01-3.46-4.06 4.23 4.23 0 016.53-4.38l54.39-39a4.23 4.23 0 014.94 6.88l-54.55 39.12A9.94 9.94 0 013288 1861z"></path><path fill="#c2ebee" d="M3549,1434.56c-20.12.41-37.83,14-49.88,30.14s-19.87,34.94-30.44,52.06c-3.66,5.92-7.8,11.8-13.68,15.53-7.58,4.81-17,5.44-25.63,7.78a65.36,65.36,0,0,0-44.41,42.58c-11.84,37.37,10.59,83.4-12.85,114.84-6.56,8.79-15.94,15-23.81,22.65-19.12,18.6-28.63,45.35-31.21,71.91s1.13,53.27,5,79.67q5.76,39.09,12.08,78.11c2.57,15.84,10,35.86,26,35.24,6.68-.26,12.5-4.44,17.79-8.53a588.48,588.48,0,0,0,104.94-104.8c25-32.25,47.34-75.63,29.09-112.13-4.28-8.55-10.82-17-9.51-26.52.79-5.66,4.31-10.52,8-14.88,16-19,37-33.73,51.11-54.16s19.62-50.52,3-69c-7.49-8.32-19.65-16-17.33-27,1-4.61,4.47-8.18,7.64-11.66C3579.17,1529.85,3620.06,1433.15,3549,1434.56Z"></path><path fill="#228e96" d="M3553.16,1488.2c-14.73,21.22-28.68,43-41.67,65.32s-25.3,45-36.7,68.21-22.12,46.68-32.05,70.53-19.12,48-27.55,72.4-16.3,49-23.33,73.88l-5.14,18.68-4.86,18.75c-1.58,6.27-3.05,12.55-4.58,18.83s-2.91,12.58-4.36,18.88q-8.46,37.82-14.55,76.11c-1,6.38-2,12.77-2.95,19.16s-1.75,12.8-2.63,19.2l-2.31,19.25-2,19.28v0a2.64,2.64,0,0,1-5.25-.48l1.54-19.42,1.94-19.39c.76-6.46,1.46-12.91,2.27-19.36s1.67-12.89,2.59-19.32q5.66-38.57,13.74-76.74c1.4-6.34,2.72-12.71,4.19-19s3-12.65,4.54-19,3.18-12.6,4.83-18.88l5.11-18.82c7-25,14.72-49.87,23.29-74.42s17.95-48.8,28.06-72.76,21-47.6,32.78-70.76,24.35-45.95,37.83-68.19,27.89-43.9,43.34-64.8a2.41,2.41,0,0,1,3.92,2.82Z"></path><path fill="#228e96" d="M3450.23 1657.42c-4.52-5.64-8.76-11.39-12.92-17.34a171.13 171.13 0 01-11.39-18.73c-1.69-3.26-3.24-6.59-4.71-9.95-.71-1.68-1.4-3.38-2.06-5.08s-1.3-3.4-1.92-5.12a189.24 189.24 0 01-6.17-20.85 2.65 2.65 0 015-1.7h0c3 6.55 5.68 13.16 8.49 19.67 1.44 3.23 2.79 6.5 4.32 9.68.7 1.61 1.48 3.19 2.22 4.78l2.35 4.71c3.14 6.27 6.68 12.36 10.25 18.52s7.28 12.37 10.59 18.77h0a2.43 2.43 0 01-4.05 2.63zM3442.45 1684.68c8.48-3.45 17-6.66 25.6-9.82s17.14-6.26 25.72-9.36l12.9-4.58 6.46-2.25c2.15-.76 4.3-1.51 6.47-2.24 8.63-3 17.28-5.88 26-8.55a2.64 2.64 0 011.92 4.91c-8.28 4-16.71 7.59-25.22 11-4.25 1.74-8.54 3.34-12.82 5s-8.6 3.16-12.93 4.68c-8.65 3-17.35 5.91-26.13 8.56s-17.6 5.15-26.54 7.26a2.42 2.42 0 01-1.47-4.6zM3380.32 1848.81a211.54 211.54 0 01-10.76-18.79c-3.3-6.42-6.3-13-9.12-19.64-1.39-3.33-2.7-6.7-4-10.06s-2.48-6.78-3.59-10.22a197.87 197.87 0 01-5.77-20.88 2.64 2.64 0 015-1.59c2.83 6.57 5.47 13.18 8.12 19.77l4 9.88 2 4.94c.67 1.64 1.37 3.28 2 4.93 2.67 6.58 5.44 13.12 8.17 19.68s5.55 13.11 8.2 19.76a2.43 2.43 0 01-4.29 2.22zM3376 1886.37c7.42-5.47 14.92-10.79 22.39-16.14s14.93-10.69 22.33-16.11l5.57-4 5.54-4.08 11.1-8.15c7.39-5.45 14.77-10.93 22.29-16.27a2.64 2.64 0 013.37 4c-6.66 6.46-13.66 12.55-20.84 18.42-3.58 3-7.25 5.78-10.9 8.64s-7.42 5.56-11.18 8.28c-7.55 5.39-15.21 10.61-23.06 15.54s-15.83 9.67-24.06 14a2.42 2.42 0 01-2.55-4.09z"></path><path fill="#c7c365" d="M3106.7,2099h.05l-.05,0Z"></path><path fill="#5555cd" d="M3422,2099l-40.56,399.86a528.55,528.55,0,0,1-232.47.38l-1.71-.38-36.25-353.49-4.3-46.37Z"></path><path fill="#3c3ba3" d="M3422,2099l-40.56,399.86a525.21,525.21,0,0,1-56.47,9.63c64.3-515.49-214-363.12-214-363.12l-4.3-46.37Z"></path><path fill="#e2902a" d="M3442.43,2020.17v58a20.75,20.75,0,0,1-20.76,20.76l-113.78,4.31q-43.48,1.63-87,0L3107.06,2099a20.75,20.75,0,0,1-20.75-20.76v-58a20.75,20.75,0,0,1,20.75-20.76l114.72,4.32q43.48,1.63,87,0l112.88-4.3A20.75,20.75,0,0,1,3442.43,2020.17Z"></path><path fill="#fab243" d="M3442.43,2020.17v30.74a20.76,20.76,0,0,1-20.76,20.76l-113.78,4.3q-43.48,1.65-87,0l-113.83-4.3a20.75,20.75,0,0,1-20.75-20.76v-30.74a20.75,20.75,0,0,1,20.75-20.76l114.72,4.32q43.48,1.63,87,0l112.88-4.3A20.75,20.75,0,0,1,3442.43,2020.17Z"></path><path fill="#f5ae97" d="M1884.93,1010.12,1846.51,985s-46,69.89-29.34,92.33l-62,92.39-9.38,56.65,38.32,91.46,107.43-217.13,17.59-26.89Z"></path><path fill="#ed856e" d="M1836.4,1030.23s-12.44,16.86,0,23.83,23.83,17.18,51.21-6.74.72-58.3.72-58.3l-39,7.59Z"></path><path fill="#c1211e" d="M1861.34,1032.77c.91-6.27,10.7-10,21.86-8.43s19.48,8,18.57,14.29-10.7,10-21.86,8.42S1860.43,1039,1861.34,1032.77Z"></path><polygon fill="#dd8317" points="2056.83 1042.89 2051.25 1036.68 1895 1037.41 1898.82 1043.36 2056.83 1042.89"></polygon><polygon fill="#dd8317" points="2051.25 1036.68 2082.17 823.47 2087.61 830.61 2056.83 1042.89 2051.25 1036.68"></polygon><polygon fill="#fab243" points="2082.17 823.47 1910.55 835.73 1881.13 1038.61 2051.25 1036.68 2082.17 823.47"></polygon><path fill="#c1211e" d="M1884.78,1029.9c5.55.84,10.29,3.1,13.29,6,16.61-1.61,93.19-8.42,150.13-3L2078,827.42s-19.73-4.58-23.2-14.8c-13.62,93.91-28.23,194.09-28.23,194.09s-50.37-23.18-140.89,15.43l-1.11,7.66Z"></path><path fill="#e4e4f4" d="M1896.3,1033.25c16.6-1.62,93.19-8.43,150.13-3-18.74-11.64-21.63-26.18-21.63-26.18s-50.38-23.18-140.9,15.43l-1.11,7.67.22.09C1888.55,1028.09,1893.29,1030.35,1896.3,1033.25Z"></path><path fill="#e4e4f4" d="M2046.43,1030.23l29.79-205.47s-21.24-4.65-21.7-25.09c-13.62,93.9-29.72,204.38-29.72,204.38S2020.93,1018.53,2046.43,1030.23Z"></path><path fill="#fbfcff" d="M2024.8,1004.05l29.72-204.38s-40.9-19.57-139.6,5.9l-31.05,214.15S1940.69,992.41,2024.8,1004.05Z"></path><path fill="#fffbef" d="M2024.8,1004.05l29.64-203.87S2028.46,938.34,2024.8,1004.05Z"></path><path fill="#d0d0e2" d="M2015.79,997.58l29.07-200.48c-17.21-4.27-58.39-9.5-130,9l-31,213.64C1893.07,1005.74,1949,989.62,2015.79,997.58Z"></path><path fill="#fbfcff" d="M1914.92,805.57c53.66-37.75,128.64-22.52,128.64-22.52L2013,993.58c-64.14-7.56-120.24,12.12-129.16,26.14Z"></path><path fill="#d0d0e2" d="M1914.54,808.2c45-31.94,115.46-24.43,123.92-23.21-112.33,5.5-216.78,175-30.75,204.6-65-3.54-111.07,11.72-123.3,26.41Z" opacity=".5"></path><polygon fill="#dd8317" points="1711.46 992.81 1718.57 988.44 1868.17 1033.52 1862.82 1038.14 1711.46 992.81"></polygon><polygon fill="#dd8317" points="1718.57 988.44 1749.48 775.23 1742.24 780.53 1711.46 992.81 1718.57 988.44"></polygon><polygon fill="#fab243" points="1749.48 775.23 1910.55 835.73 1881.13 1038.61 1718.57 988.44 1749.48 775.23"></polygon><path fill="#c1211e" d="M1879.9,1029.19c-5.56-.76-10.74.06-14.45,2-15.46-6.26-87-34.55-143.09-45.54l29.79-205.46s20.21,1.21,26.45-7.6c-13.62,93.91-28.06,194.11-28.06,194.11s54.88-7.92,130.7,54.81l-1.11,7.67Z"></path><path fill="#e4e4f4" d="M1868.11,1029.16c-15.46-6.26-87-34.55-143.09-45.54,21.27-5.83,28.1-19,28.1-19s55-7.91,130.78,54.82l-1.11,7.67-.23,0C1877,1026.41,1871.82,1027.23,1868.11,1029.16Z"></path><path fill="#e4e4f4" d="M1725,983.62l29.79-205.46s21.69,1.57,27.94-17.9c-13.61,93.91-29.63,204.4-29.63,204.4S1752.79,979.65,1725,983.62Z"></path><path fill="#fbfcff" d="M1753.12,964.66l29.63-204.4s44.77-7.14,132.17,45.31l-31.05,214.15S1837.08,977.38,1753.12,964.66Z"></path><path fill="#d0d0e2" d="M1763.63,961.54l29.07-200.48c17.71.8,58.68,7.48,122.1,45.54l-31,213.63C1879,1004.22,1830,972.89,1763.63,961.54Z"></path><path fill="#fbfcff" d="M1914.92,805.57C1874.2,754.14,1798,747.44,1798,747.44L1767.45,958c63.65,11,111.85,45.78,116.42,61.75Z"></path><path fill="#d0d0e2" d="M1914.69,808.22c-34-43.39-103.77-56.22-112.22-57.45,106.14,37.18,158.14,229.36-28.64,204.91,63.3,15.06,103.17,42.78,110.72,60.34Z" opacity=".5"></path><path fill="#d0d0e2" d="M1883.87 1019.72c4.36-34.9 24-174.64 31.05-214.15C1913.49 828.42 1893 970.33 1883.87 1019.72zM1896.27 1020.54c43.56-12.61 61.55-11.9 124.67-11.28C1993.81 1005.32 1938.83 1002.39 1896.27 1020.54zM1904.09 1028.77c38.67-3.14 62.13-8.8 125.13-4.78C2004.81 1019.51 1939.3 1019.73 1904.09 1028.77z"></path><path fill="#d0d0e2" d="M1902.63 1024.44c23.39-3.71 37.4-8.24 75.91-8.72C1963.48 1014.13 1923.64 1017.31 1902.63 1024.44zM1871.11 1016.89c-38.18-24.46-55.63-28.89-116.33-46.23C1781.91 974.6 1835.46 987.4 1871.11 1016.89zM1861.28 1022.56c-36.19-14-57.08-26.08-118.62-40.12C1767.33 985.08 1830.08 1003.89 1861.28 1022.56z"></path><path fill="#d0d0e2" d="M1849.35 1010.35c-21.59-9.19-34-16.91-70.87-26.63C1793.34 985.81 1830.87 998.44 1849.35 1010.35zM2042 1021s21.47-133.19 27.79-191.64C2059 888.9 2042 1021 2042 1021zM2029.11 1008.29s21.47-133.2 27.78-191.65C2046.09 876.24 2029.11 1008.29 2029.11 1008.29zM2037.69 998.74s16.44-98.5 20.94-144.47C2049.7 901 2037.69 998.74 2037.69 998.74zM1731.94 973.47s17.25-133.81 27.79-191.64C1753.16 842 1731.94 973.47 1731.94 973.47zM1747.92 965s17.25-133.81 27.79-191.65C1769.14 833.56 1747.92 965 1747.92 965zM1742.41 953.4s12.21-99.11 20.95-144.47C1758.65 856.29 1742.41 953.4 1742.41 953.4z"></path>
<path fill="#f15344" d="M1865.41,1032.84c.6-4.18,8.36-6.51,17.31-5.21s15.73,5.74,15.13,9.91-8.36,6.51-17.32,5.21S1864.8,1037,1865.41,1032.84Z"></path><path fill="#e64125" d="M1864.43,1032.75a2.17,2.17,0,0,0,3.06.06c3-2.88,8.85-4.17,15-3.29s11.51,3.86,13.49,7.54a2.14,2.14,0,0,0,1.6,1.11,2.12,2.12,0,0,0,1.33-.23,2.18,2.18,0,0,0,1.05-1.29,2.09,2.09,0,0,0-.17-1.64c-2.64-4.92-9-8.66-16.68-9.77-7.49-1.09-14.62.62-18.59,4.45A2.17,2.17,0,0,0,1864.43,1032.75Z"></path><path fill="#fcf2d5" d="M2024.8 1004.05c-2 16.93 15.31 23.8 21.63 26.18C2046.43 1030.23 2026.8 1019.6 2024.8 1004.05zM1753.12 964.66c-2.92 16.79-21.37 18.48-28.1 19C1725 983.62 1746.79 979 1753.12 964.66z"></path><path fill="#fffbef" d="M1753.1,964.65l29.48-203.89S1768.26,900.61,1753.1,964.65Z"></path><path fill="#d0d0e2" d="M1915.81 920.37a2.46 2.46 0 001-.17c49.15-20.52 89-9.09 89.4-9a2.27 2.27 0 101.3-4.36c-1.68-.5-41.74-12-92.46 9.13a2.28 2.28 0 00.77 4.37zM1919.09 897.74a2.14 2.14 0 001-.17c49.15-20.52 89-9.08 89.4-9a2.27 2.27 0 001.3-4.36c-1.68-.51-41.73-12.06-92.46 9.12a2.27 2.27 0 00.77 4.37zM1922.37 875.12a2.29 2.29 0 001-.18c49.15-20.51 89-9.08 89.4-9a2.27 2.27 0 101.3-4.36c-1.68-.5-41.73-12-92.45 9.13a2.27 2.27 0 00.76 4.37zM1925.65 852.49a2.14 2.14 0 001-.17c49.15-20.52 89-9.08 89.4-9a2.27 2.27 0 001.3-4.36c-1.68-.51-41.73-12.06-92.45 9.12a2.27 2.27 0 00.76 4.37zM1882.68 915.56a2.22 2.22 0 01-.9-.44c-41.29-33.64-82.76-34-83.17-34a2.28 2.28 0 110-4.55c1.75 0 43.43.3 86.05 35a2.27 2.27 0 01-2 4zM1886 892.94a2.31 2.31 0 01-.9-.45c-41.29-33.63-82.76-34-83.17-34a2.28 2.28 0 010-4.55c1.75 0 43.43.29 86 35a2.27 2.27 0 01-2 4zM1889.24 870.31a2.29 2.29 0 01-.9-.44c-41.29-33.64-82.75-34-83.17-34a2.28 2.28 0 010-4.55c1.75 0 43.43.3 86 35a2.27 2.27 0 01-2 4zM1892.52 847.69a2.31 2.31 0 01-.9-.45c-41.29-33.63-82.75-34-83.17-34a2.28 2.28 0 010-4.55c1.75 0 43.43.29 86 35a2.27 2.27 0 01-2 4z"></path><path fill="#f5ae97" d="M1887.61,1047.32s8.2-22.15,27.38-23.91c0,0-20-19.12-13.17-30s32.18,13,39.94,33.14-32.58,47.26-32.58,47.26S1884.24,1062.1,1887.61,1047.32Z"></path><path fill="#fab243" d="M1731.57,1306.11s-148.35-33.46-164.26-87.51c-3.9-13.26-4.29-29.66-2.67-46.88,5-52.93,29.1-113.5,29.1-113.5s58.9,78.88,125,108.91l8.59,92.74Z"></path><path fill="#e2902a" d="M1731.57,1306.11s-148.35-33.46-164.26-87.51c-3.9-13.26-4.29-29.66-2.67-46.88l14.09-.52s81.41,73.89,148.56,88.67Z"></path><path fill="#ff4a66" d="M1310.12,2516.39c-48-5.72-103-43.54-136.76-74.58-.91-.84-1.82-1.73-2.74-2.66h0c-32.75-33.44-64-122.84-64-122.84l21.75-15.76,59.44-43.1,53.13,30.44,51.83,51.6L1279.7,2384c50.76,39.42,45.16,82.11,40,107.21C1316.44,2506.71,1310.12,2516.39,1310.12,2516.39Z"></path><path fill="#fff" d="M1310.12,2516.39c-48-5.72-103-43.54-136.76-74.58-.91-.84-1.82-1.73-2.74-2.66h0c63.13-78.4,109.07-55.18,109.07-55.18,50.76,39.42,45.16,82.11,40,107.21C1316.44,2506.71,1310.12,2516.39,1310.12,2516.39Z"></path><path fill="#3c3ba3" d="M1310.12 2516.39c-48-5.72-103-43.54-136.76-74.58s-66.68-125.5-66.68-125.5l21.75-15.76s17.86 98.77 77.94 139.32 79.83 47.13 113.28 51.31C1316.44 2506.71 1310.12 2516.39 1310.12 2516.39zM1340.38 1776.63l-17.77 203.94-170.36 229.86s14 173 170.36 187.24l111.15-229.86 20.66-306z"></path><rect width="389.96" height="6.58" x="1133.66" y="2154.98" fill="#fff" transform="rotate(-59.56 1328.567 2158.227)"></rect><path fill="#ff4a66" d="M1760.89,2545.52c-47.93,31.93-127.06,40.21-181.64,38.15-1.47-.06-3-.16-4.53-.29h0c-55.53-5-152.94-61.9-152.94-61.9l7.52-31.11,20.56-85,71.7-13.49,86.87,6.7,22.49,50.48c76.5-3.52,104.43,39.51,119.12,66.29C1759.13,2531.87,1760.89,2545.52,1760.89,2545.52Z"></path><path fill="#fff" d="M1760.89,2545.52c-47.93,31.93-127.06,40.21-181.64,38.15-1.47-.06-3-.16-4.53-.29h0c-3.39-119.88,56.2-134.35,56.2-134.35,76.5-3.52,104.43,39.51,119.12,66.29C1759.13,2531.87,1760.89,2545.52,1760.89,2545.52Z"></path><path fill="#3c3ba3" d="M1760.89,2545.52c-47.93,31.93-127.06,40.21-181.64,38.15s-157.47-62.2-157.47-62.2l7.52-31.11s92.57,75.73,178.38,66,108.8-19,142.36-41.08C1759.13,2531.87,1760.89,2545.52,1760.89,2545.52Z"></path><path fill="#5555cd" d="M1661.52,2403.48c-112,108.41-265.65,32.05-265.65,32.05L1379.67,2049s-16.16-178.42-40.83-278.81S1325,1569.63,1325,1569.63L1516.1,1439.8,1640.59,1546l-46.86,248.69,18.43,208.79Z"></path><path fill="#fff" d="M1512.29,2448.83c-.24-3.11-24.2-312.15-32.69-439.22-8.47-126.8-85.42-484.36-86.2-488l6.44-1.39c.77,3.6,77.83,361.63,86.33,488.92,8.49,127,32.44,436,32.68,439.14Z"></path><polygon fill="#3c3ba3" points="1640.59 1545.97 1593.73 1794.67 1566.5 1565.32 1640.59 1545.97"></polygon><path fill="#fab243" d="M1640.59,1546c-147.46,74.71-315.41,19.34-315.41,19.34l1.94-36.55L1636.83,1508Z"></path><path fill="#ff4a66" d="M1636.83,1508h0c-165.34,91.33-309.68,20.8-309.68,20.8s1.56-41,5.41-108.94c1.69-30.13,3.84-65.54,6.5-105,3-44.69.64-88.48-3.72-126.57-1.28-11.18-2.73-21.87-4.27-31.94-8.26-54.17-19-90.67-19-90.67l82.43-37.18,116.66-4.75,60.48,17.54a38.53,38.53,0,0,1,27.07,29.65c8.94,45.67,17.55,138.45,24.31,226.83,2.29,29.77,4.37,59,6.16,85.86C1633.92,1454.41,1636.83,1508,1636.83,1508Z"></path><path fill="#fab243" d="M1510.05,1023.73c33.27,102.35-1.11,223.11-1.11,223.11-44.88-136.1-114.49-218.35-114.49-218.35Z"></path><path fill="#f5ae97" d="M1390.22,929.75s0,0,.1,0c1.87,1.33,3.74,2.61,5.55,3.68a95.8,95.8,0,0,0,13.94,7,6.41,6.41,0,0,1,4,5.33c1.26,11.07,5.52,34.36,4.19,56.19,20.54,22.45,36.17,32.17,47.85,35.24,14.77,3.89,29.52-6.43,31.47-21.57l2.93-22.7c61.18,5.36,67-109.64,67-109.64l-6.51-78.47-76.58-27.41-67,94.58s-35.1-23.39-45.3,16.68C1367.13,907.55,1378.28,921.08,1390.22,929.75Z"></path><path fill="#ed856e" d="M1498.22 1009c-47.43-15.42-43.43-47.39-43.43-47.39 15.62 27.28 38.62 30.9 45.48 31.43zM1406.93 892.66c2.16-5.18-3.6-10.35-8.54-7.68-4.1 2.21-7.67 7.24-5 18.58 5.27 22 17.49 12.92 16.85 6.26s-6.56-9.73-3.45-16.94zM1395.87 933.48a95.8 95.8 0 0013.94 7s13.66 1.53 16.19-11.29C1425.05 930.33 1414.79 942.12 1395.87 933.48zM1418.91 875.33s26.58 26.23 64.52-16.72c0 0 19.7-22.47 25.55-37.88 4.64-12.24 12.15 4.1 11.14 9.62 0 0 11.38-30.36 23.33-2.91 0 0 3.49 6.15 11 41.41l9.23-65.41-36-32.45L1457 765.25l-32.49 26.17-32.26 40.34z"></path>
<path fill="#0e4959" d="M1377 762.87a1.35 1.35 0 002.26-1c0-7.21-.78-25.44-8.68-28.81C1361 729 1359 746.14 1377 762.87zM1372.76 768a1 1 0 00.28-1.79c-4.47-2.82-16.07-9.45-21.24-5.87C1345.56 764.61 1355.38 772.55 1372.76 768z"></path><path fill="#011c2d" d="M1372.7,866.18c1.72,3,3.65,6.15,5.72,9.33,0,0,12.35-21.49,39-1.21,25,19,78-24.38,85.29-58.73,1.29-6.18,8.16-10,13.51-6.53,2.48,1.55,4.76,4.48,6.17,9.55,0,0,7.56-20.65,21.64.55s2.49,59.23,23.07,73.3c16.39,11.24,24.61-3.12,26.66-25a150.6,150.6,0,0,0,.3-17.8c-1.32-30.77,15.06-49.39-9.75-66.7,0,0-18.82-60.77-62.06-35,0,0-35.92-34.58-84.94-23.82s-56.24,48.29-56.24,48.29S1330.69,793.32,1372.7,866.18Z"></path><path fill="#06252c" d="M1372.7,866.18c1.72,3,3.65,6.15,5.72,9.33,0,0,12.35-21.49,39-1.21,25,19,78-24.38,85.29-58.73,1.29-6.18,8.16-10,13.51-6.53,2.48,1.55,4.76,4.48,6.17,9.55,0,0,7.56-20.65,21.64.55s2.49,59.23,23.07,73.3c16.39,11.24,24.61-3.12,26.66-25l0,0s-10,27.66-24,12.26-9.77-110.11-45.93-72.49c0,0-16.25-26.85-28,5.54s-53.12,58.32-71.3,47-45.58-7.42-50.71,4.56A19.41,19.41,0,0,1,1372.7,866.18Z"></path><path fill="#06252c" d="M1480.6 790.29s-14 55.58-73.65 52.74C1407 843 1450.42 830.54 1480.6 790.29zM1379.67 785.12s-24.32 15.26-4.36 60.16C1375.31 845.28 1366.61 810.89 1379.67 785.12zM1525.15 757.18S1558.84 736 1576 785.3C1576 785.3 1562.91 753.92 1525.15 757.18zM1392.3 770.1s33.68-53.16 106.48-20.76C1498.78 749.34 1433.67 732.06 1392.3 770.1z"></path><path fill="#072c35" d="M1507.65 875.19a7.39 7.39 0 00-3.67-3.78 9.2 9.2 0 00-6.13-.65c-4 .83-8.93 4.62-8.94 8.92 0 1.78-2.11 3-3.7 2.81-1.94-.26-2.82-1.91-2.81-3.69 0-3.76 2.35-7 5-9.51a19.79 19.79 0 019.61-5c6.68-1.38 14 2 16.72 8.36 1.66 3.9-4.38 6.47-6 2.58zM1562.23 879c-.15-3.57-4.15-7.47-7.53-8.34-3.92-1-8.11 2-10.74 5.17a3.31 3.31 0 01-4.64.1 3.36 3.36 0 01-.1-4.65c4-4.91 10.91-8.81 17.38-6.9 6.12 1.81 11.92 7.82 12.2 14.4a3.29 3.29 0 01-6.57.22z"></path><ellipse cx="1553.28" cy="895.34" fill="#072c35" rx="9.33" ry="5.85" transform="rotate(-86.52 1553.303 895.338)"></ellipse><ellipse cx="1502.04" cy="892.3" fill="#072c35" rx="9.84" ry="6.17" transform="rotate(-86.52 1502.066 892.296)"></ellipse><path fill="#cb6655" d="M1536.19,945.88l-32.65-7.25a3.19,3.19,0,0,0-3.9,3.12c.08,7.5,1.94,23.24,15.86,25.37s20.56-10.63,23-17A3.18,3.18,0,0,0,1536.19,945.88Z"></path><path fill="#2794d7" d="M1418.16,994.76l-23.71,33.73s34.48,48.43,94.89,49.69l-.09-44.82S1434.48,1020.05,1418.16,994.76Z"></path>
<path fill="#2794d7" d="M1489.25,1033.36s8.11-16.3,9.94-32l11.92,22.33c-.46-1.51,10,26.75,2,45.11Z"></path><polygon fill="#ff4a66" points="1324.95 1569.63 1325.18 1565.32 1324.96 1569.63 1324.95 1569.63"></polygon><path fill="#2794d7" d="M1784.16,1317.87c-65.2,13.12-65.46-15-65.46-15s-18.1-121.07,0-135.78a24.7,24.7,0,0,1,7.48-4.28c15.16-5.26,28.16,9.57,28.16,9.57C1753.86,1218.1,1770.65,1274.23,1784.16,1317.87Z"></path><path fill="#070707" d="M1517.9 913.73h-.41l-33.48-2a6.66 6.66 0 01-6.22-7l.58-9.54a6.65 6.65 0 017-6.22l33.47 2a6.62 6.62 0 016.22 7l-.58 9.54A6.63 6.63 0 011517.9 913.73zm-.08-5.48a1.17 1.17 0 001.22-1.08l.58-9.54a1.15 1.15 0 00-.29-.83 1.19 1.19 0 00-.79-.39l-33.47-2a1.2 1.2 0 00-.84.28 1.15 1.15 0 00-.38.8l-.58 9.54a1.14 1.14 0 001.08 1.21zM1568 917.38h-.41l-24.88-1.51a6.64 6.64 0 01-6.22-7l.58-9.54a6.63 6.63 0 017-6.21l24.88 1.51a6.64 6.64 0 016.22 7l-.58 9.54A6.63 6.63 0 011568 917.38zm-.07-5.48a1.16 1.16 0 001.21-1.08l.58-9.54a1.15 1.15 0 00-1.07-1.22l-24.88-1.51a1.15 1.15 0 00-1.22 1.08l-.58 9.54a1.14 1.14 0 001.08 1.21z"></path><path fill="#070707" d="M1522.87,898.14a1.65,1.65,0,0,0,0-3.29,1.65,1.65,0,0,0,0,3.29Z"></path><path fill="#070707" d="M1523.41 898.21c5-.89 10.61-1.86 15.21 1 1.81 1.11 3.47-1.74 1.66-2.84-5.4-3.31-11.84-2.35-17.75-1.29a1.64 1.64 0 10.88 3.17zM1423.15 880.12c19.84 3.58 39 10.19 58.81 13.77 2.07.37 3-2.8.88-3.17-19.84-3.59-39-10.19-58.82-13.77-2.07-.38-3 2.8-.87 3.17z"></path><path fill="#157fbb" d="M1784.16,1317.87c-65.2,13.12-65.46-15-65.46-15s-18.1-121.07,0-135.78a24.7,24.7,0,0,1,7.48-4.28s-21.91,40.13-3,94,43.53,53.26,38.35,20.1-15.52-94-7.15-104.53C1753.86,1218.1,1770.65,1274.23,1784.16,1317.87Z"></path><path fill="#d7274d" d="M1636.81,1508c-165.34,91.33-309.68,20.8-309.68,20.8s1.56-41,5.41-108.94c1.69-30.13,3.84-65.54,6.5-105,3-44.69.64-88.48-3.72-126.57-1.28-11.18-2.73-21.87-4.27-31.94h34.46s-44.53,325.52,12.74,361.59C1435.17,1553.78,1634.57,1508.48,1636.81,1508Z"></path><path fill="#fab243" d="M1338.77,1320.23l-111.33,97.31s-39-26.22,0-169.37S1312,1067,1312,1067s42.23-13.87,54.6,20.42S1338.77,1320.23,1338.77,1320.23Z"></path><path fill="#59c7d2" d="M1510.34,1478.42h0c-8.93-1.73-15.08-9.21-13.87-16.88l26.23-166.11c1.27-8,10-13.12,19.31-11.33l11.14,2.15c9.31,1.79,15.51,9.79,13.71,17.69l-37.37,164C1527.76,1475.48,1519.28,1480.14,1510.34,1478.42Z"></path><path fill="#228e96" d="M1567,1303l-37.36,164c-1.72,7.58-10.21,12.23-19.15,10.51-7.53-1.45-13.07-7-13.91-13.29a12.29,12.29,0,0,1,.05-3.58l26.23-166.11c1.25-8,10-13.13,19.3-11.33l11.13,2.14a18.9,18.9,0,0,1,8.27,3.77C1565.94,1292.56,1568.22,1297.81,1567,1303Z"></path><path fill="#59c7d2" d="M1561.4,1293.46l-37.37,164c-1.74,7.57-10.21,12.23-19.16,10.51a19,19,0,0,1-8.26-3.76,12.29,12.29,0,0,1,.05-3.58l26.23-166.11c1.25-8,10-13.13,19.3-11.33l11.13,2.14a18.9,18.9,0,0,1,8.27,3.77A12,12,0,0,1,1561.4,1293.46Z"></path><path fill="#1a1a68" d="M1591.71,1278.94a42.2,42.2,0,1,1-12.91-39A42.15,42.15,0,0,1,1591.71,1278.94Z"></path><path fill="#3c3ba3" d="M1585.73,1272.14a32.53,32.53,0,1,1-6.93-32.23A42.18,42.18,0,0,1,1585.73,1272.14Z"></path>
<path fill="#157fbb" d="M1598,1280.14a9.72,9.72,0,0,1-11.4,7.72l-76.19-14.68a9.68,9.68,0,0,1-7.67-7.59,9.57,9.57,0,0,1,0-3.81,9.72,9.72,0,0,1,11.38-7.7l76.19,14.68a9.06,9.06,0,0,1,3,1.12A9.68,9.68,0,0,1,1598,1280.14Z"></path><path fill="#2794d7" d="M1593.26,1273.65a9.72,9.72,0,0,1-11.4,7.72l-76.17-14.68a9.68,9.68,0,0,1-3-1.1,9.57,9.57,0,0,1,0-3.81,9.72,9.72,0,0,1,11.38-7.7l76.19,14.68a9.06,9.06,0,0,1,3,1.12A9.56,9.56,0,0,1,1593.26,1273.65Z"></path><path fill="#f5ae97" d="M1584.13,1362.49h0c-.42,1.54-.93,3.1-1.49,4.69-9,25.3-1.35,100-108.21,62l-181.83,1.33L1267,1381.65l51.94-48.12,20.15-18.68,138.44,13.79s16.6-19.29,29.85-16.28,15.06,13.27,45.79,10.85C1581.93,1321,1590.61,1339.35,1584.13,1362.49Z"></path><path fill="#ed856e" d="M1584.13,1362.49c3.43-25-15-38-33.81-34s-36.3-7.07-47.82-9.64-25,21.38-25,21.38l-158.33-5.78-.33-.88,20.15-18.68,138.44,13.79s16.6-19.29,29.85-16.28,15.06,13.27,45.79,10.85C1581.93,1321,1590.61,1339.35,1584.13,1362.49Z"></path>
<path fill="#2794d7" d="M1332.81,1328c-47,70.07-40.21,102.54-40.21,102.54-17.72,5.31-31,5.45-40.7,3.33a43.87,43.87,0,0,1-12.52-4.73c-8.87-5.11-11.94-11.63-11.94-11.63s12.19-48.2,47.92-93.84c9.8-12.51,18.91-17.59,27.17-19.72,7.41-1.91,14.15-1.45,20.08-1.87,8.73-.6,14.05.38,17.06,2.26C1350,1310.86,1332.81,1328,1332.81,1328Z"></path><path fill="#157fbb" d="M1239.65,1418.85a96.62,96.62,0,0,0-.27,10.2c-8.87-5.11-11.94-11.63-11.94-11.63s12.19-48.21,47.92-93.84c9.8-12.51,18.91-17.59,27.17-19.72C1302.53,1303.86,1245,1345.05,1239.65,1418.85Z"></path>
<path fill="#157fbb" d="M1309.33 1322.46s-28.34 16.92-37.44 74.24C1271.89 1396.7 1266.6 1335.57 1309.33 1322.46zM1318.22 1308.78s8.9 8.06-3.79 37.29C1314.43 1346.07 1336.39 1315 1318.22 1308.78z"></path>
</g>
</svg>